<?xml version="1.0" encoding="UTF-8" standalone="no"?>
<!-- Generator: Adobe Illustrator 27.5.0, SVG Export Plug-In . SVG Version: 6.00 Build 0)  -->

<svg
   version="1.1"
   x="0px"
   y="0px"
   viewBox="0 0 67083 69481"
   xml:space="preserve"
   id="svg22"
   sodipodi:docname="1257225_148675-OUDDRC-157.svg"
   inkscape:export-filename="../Documents/GitHub/galobet/src/assets/lion.png"
   inkscape:export-xdpi="129.5112"
   inkscape:export-ydpi="129.5112"
   inkscape:version="1.3 (0e150ed6c4, 2023-07-21)"
   width="67083"
   height="69481"
   xmlns:inkscape="http://www.inkscape.org/namespaces/inkscape"
   xmlns:sodipodi="http://sodipodi.sourceforge.net/DTD/sodipodi-0.dtd"
   xmlns="http://www.w3.org/2000/svg"
   xmlns:svg="http://www.w3.org/2000/svg"><defs
   id="defs22" /><sodipodi:namedview
   id="namedview22"
   pagecolor="#ffffff"
   bordercolor="#000000"
   borderopacity="0.25"
   inkscape:showpageshadow="2"
   inkscape:pageopacity="0.0"
   inkscape:pagecheckerboard="0"
   inkscape:deskcolor="#d1d1d1"
   inkscape:zoom="1.69"
   inkscape:cx="250.29586"
   inkscape:cy="250"
   inkscape:window-width="1920"
   inkscape:window-height="1011"
   inkscape:window-x="304"
   inkscape:window-y="1112"
   inkscape:window-maximized="1"
   inkscape:current-layer="g21" />&#10;&#10;<g
   id="OBJECTS"
   transform="translate(-78985.67,-68532.114)">&#10;	<g
   id="g22"
   transform="translate(21.893491,-0.59171598)">&#10;		&#10;		&#10;		&#10;		<g
   id="g21"
   transform="translate(-134.91124,-106.50888)">&#10;			&#10;			&#10;			<g
   id="g20"
   style="fill:#fa8b23;fill-opacity:1">&#10;				<polygon
   style="fill:#fa8b23;fill-opacity:1"
   points="350.882,304.095 352.624,307.386 351.947,317.453 354.754,307.095 351.85,299.739 343.331,297.609 337.62,301.578 340.718,301.965 342.557,303.804 348.946,304.772 "
   id="polygon18" />&#10;				<polygon
   style="fill:#fa8b23;fill-opacity:1"
   points="372.178,307.095 374.985,317.453 374.307,307.386 376.05,304.095 377.986,304.772 386.214,301.965 389.311,301.578 383.6,297.609 375.082,299.739 "
   id="polygon19" />&#10;				<path
   style="fill:#fa8b23;fill-opacity:1"
   d="m 364.291,338.581 3.465,-9.24 3.965,-1.669 c 1.171,-0.493 1.954,-2.356 1.775,-3.614 -0.244,-1.72 -10.03,0.498 -10.03,0.498 0,0 -9.187,-1.919 -9.784,-0.658 -0.689,1.458 -0.008,3.126 1.409,3.723 l 4.084,1.72 3.465,9.24 -10.301,4.539 c -2.176,-0.198 -4.234,1.017 -5.112,3.018 l -0.015,0.034 16.253,-4.907 16.253,4.907 -0.015,-0.034 c -0.878,-2 -2.937,-3.216 -5.113,-3.018 z"
   id="path19" />&#10;				<path
   style="fill:#fa8b23;fill-opacity:1"
   d="m 430.548,310.29 -14.23,-21.199 13.939,11.616 -12.487,-22.651 -18.005,-9.874 12.778,1.452 -20.328,-12.197 -15.682,-0.871 -13.068,7.295 -13.068,-7.295 -15.682,0.871 -20.328,12.197 12.778,-1.452 -18.005,9.874 -12.487,22.651 13.939,-11.616 -14.23,21.199 1.742,28.459 8.712,-11.616 -5.518,19.747 10.454,18.586 5.808,-19.457 -1.162,21.78 9.583,13.939 1.162,-22.942 7.26,22.942 15.682,10.745 -1.452,-12.936 14.81,15.991 14.81,-15.991 -1.452,12.936 15.681,-10.745 7.26,-22.942 1.162,22.942 9.583,-13.939 -1.162,-21.78 5.808,19.457 10.454,-18.586 -5.518,-19.747 8.712,11.616 z m -41.721,21.005 c 0,0 -11.423,-7.163 -10.648,-6.582 0.774,0.581 7.938,11.422 7.938,11.422 l -1.742,14.133 -5.808,9.68 -9.874,5.808 3.098,-7.938 -8.325,5.203 -8.325,-5.203 3.098,7.938 -9.874,-5.808 -5.808,-9.68 -1.742,-14.133 c 0,0 7.163,-10.842 7.938,-11.422 0.774,-0.581 -10.648,6.582 -10.648,6.582 l -7.163,-12.778 1.355,-22.264 9.68,-17.424 21.49,9.233 21.49,-9.233 9.68,17.424 1.355,22.264 z"
   id="path20" />&#10;			</g>&#10;		</g>&#10;	</g>&#10;</g>&#10;&#10;</svg>
